<svg width="860" height="256" viewBox="0 0 860 256" fill="none" xmlns="http://www.w3.org/2000/svg">
<path d="M138 256C131.323 256 124.646 256 117.646 255.812C113.535 255.11 109.723 254.728 105.962 254.061C51.3944 244.388 9.7156 201.641 1.40053 146.892C0.999499 144.251 0.469788 141.63 1.63233e-09 139C-4.98368e-07 131.99 -4.61936e-07 124.979 0.186663 117.648C0.888185 113.539 1.27196 109.728 1.9376 105.966C11.5907 51.4199 54.3853 9.69254 109.108 1.40086C111.749 1.00073 114.37 0.469941 117 0C123.677 5e-07 130.354 5.36442e-07 137.357 0.189318C153.598 1.55566 168.887 5.32363 183.125 12.5239C224.47 33.432 248.575 66.8409 255.078 112.817C255.301 114.39 255.689 115.939 256 117.5C256 124.344 256 131.188 255.812 138.354C254.179 154.29 250.514 169.36 243.391 183.351C222.423 224.536 189.073 248.608 143.184 255.076C141.447 255.321 139.728 255.689 138 256ZM77.8782 116.862C79.5158 122.516 81.0347 128.208 82.8498 133.803C83.5673 136.016 83.4204 137.772 82.0926 139.635C76.8473 146.998 69.5759 150.479 60.711 150.401C51.9216 150.323 45.1433 146.24 40.2388 138.975C38.8836 136.968 37.1614 135.633 34.5669 136.667C32.5091 137.488 31.5385 139.515 32.1078 142.344C35.5768 159.587 45.4245 171.48 62.2413 176.952C72.221 180.199 82.2773 179.347 92.0742 175.541C92.8163 175.252 93.7411 175.434 94.581 175.397C94.4582 176.237 94.5095 177.152 94.1833 177.904C92.5247 181.725 90.0093 184.927 86.5901 187.301C79.5595 192.183 71.9224 193.723 63.6204 191.126C63.2234 191.002 62.8099 190.931 62.4117 190.81C60.0962 190.107 58.1304 190.472 56.7525 192.647C55.3085 194.927 56.5482 196.584 58.0685 198.138C71.1194 211.475 93.1936 214.321 109.722 204.849C117.661 200.298 123.484 193.763 127.891 185.456C128.495 186.451 128.975 187.196 129.411 187.966C139.176 205.225 156.9 213.405 176.28 209.498C184.574 207.826 191.675 203.865 197.644 197.865C199.196 196.305 199.509 194.578 198.441 192.656C197.356 190.704 195.617 190.199 193.54 190.627C192.81 190.777 192.102 191.036 191.388 191.259C179.211 195.058 166.318 189.369 160.942 177.788C160.535 176.912 160.388 175.916 159.939 174.342C161.651 174.965 162.642 175.293 163.609 175.683C184.921 184.271 208.456 175.963 219.211 155.71C221.43 151.531 222.564 146.731 223.855 142.121C224.593 139.487 223.443 137.741 221.267 136.845C218.899 135.87 217.279 136.917 215.937 138.774C215.304 139.65 214.667 140.525 213.996 141.371C203.565 154.537 182.553 153.502 173.539 139.412C172.467 137.735 172.276 136.219 172.964 134.272C174.706 129.347 176.436 124.39 177.699 119.328C180.062 109.852 181.866 100.235 180.337 90.4206C176.614 66.5087 158.113 48.7544 134.113 45.859C103.033 42.1096 75.337 66.5764 75.5678 97.8958C75.6134 104.087 76.9956 110.268 77.8782 116.862Z" fill="currentColor"/>
<path d="M410.545 128.182C410.545 143.227 407.727 156.114 402.091 166.841C396.5 177.523 388.864 185.705 379.182 191.386C369.545 197.068 358.614 199.909 346.386 199.909C334.159 199.909 323.205 197.068 313.523 191.386C303.886 185.659 296.25 177.455 290.614 166.773C285.023 156.045 282.227 143.182 282.227 128.182C282.227 113.136 285.023 100.273 290.614 89.5909C296.25 78.8636 303.886 70.6591 313.523 64.9773C323.205 59.2954 334.159 56.4545 346.386 56.4545C358.614 56.4545 369.545 59.2954 379.182 64.9773C388.864 70.6591 396.5 78.8636 402.091 89.5909C407.727 100.273 410.545 113.136 410.545 128.182ZM385.114 128.182C385.114 117.591 383.455 108.659 380.136 101.386C376.864 94.0682 372.318 88.5455 366.5 84.8182C360.682 81.0455 353.977 79.1591 346.386 79.1591C338.795 79.1591 332.091 81.0455 326.273 84.8182C320.455 88.5455 315.886 94.0682 312.568 101.386C309.295 108.659 307.659 117.591 307.659 128.182C307.659 138.773 309.295 147.727 312.568 155.045C315.886 162.318 320.455 167.841 326.273 171.614C332.091 175.341 338.795 177.205 346.386 177.205C353.977 177.205 360.682 175.341 366.5 171.614C372.318 167.841 376.864 162.318 380.136 155.045C383.455 147.727 385.114 138.773 385.114 128.182ZM433.369 237.273V93.2727H457.642V110.591H459.074C460.347 108.045 462.142 105.341 464.46 102.477C466.778 99.5682 469.915 97.0909 473.869 95.0454C477.824 92.9545 482.869 91.9091 489.006 91.9091C497.097 91.9091 504.392 93.9773 510.892 98.1136C517.438 102.205 522.619 108.273 526.438 116.318C530.301 124.318 532.233 134.136 532.233 145.773C532.233 157.273 530.347 167.045 526.574 175.091C522.801 183.136 517.665 189.273 511.165 193.5C504.665 197.727 497.301 199.841 489.074 199.841C483.074 199.841 478.097 198.841 474.142 196.841C470.188 194.841 467.006 192.432 464.597 189.614C462.233 186.75 460.392 184.045 459.074 181.5H458.051V237.273H433.369ZM457.574 145.636C457.574 152.409 458.528 158.341 460.438 163.432C462.392 168.523 465.188 172.5 468.824 175.364C472.506 178.182 476.96 179.591 482.188 179.591C487.642 179.591 492.21 178.136 495.892 175.227C499.574 172.273 502.347 168.25 504.21 163.159C506.119 158.023 507.074 152.182 507.074 145.636C507.074 139.136 506.142 133.364 504.278 128.318C502.415 123.273 499.642 119.318 495.96 116.455C492.278 113.591 487.688 112.159 482.188 112.159C476.915 112.159 472.438 113.545 468.756 116.318C465.074 119.091 462.278 122.977 460.369 127.977C458.506 132.977 457.574 138.864 457.574 145.636ZM553.369 237.273V93.2727H577.642V110.591H579.074C580.347 108.045 582.142 105.341 584.46 102.477C586.778 99.5682 589.915 97.0909 593.869 95.0454C597.824 92.9545 602.869 91.9091 609.006 91.9091C617.097 91.9091 624.392 93.9773 630.892 98.1136C637.438 102.205 642.619 108.273 646.438 116.318C650.301 124.318 652.233 134.136 652.233 145.773C652.233 157.273 650.347 167.045 646.574 175.091C642.801 183.136 637.665 189.273 631.165 193.5C624.665 197.727 617.301 199.841 609.074 199.841C603.074 199.841 598.097 198.841 594.142 196.841C590.188 194.841 587.006 192.432 584.597 189.614C582.233 186.75 580.392 184.045 579.074 181.5H578.051V237.273H553.369ZM577.574 145.636C577.574 152.409 578.528 158.341 580.438 163.432C582.392 168.523 585.188 172.5 588.824 175.364C592.506 178.182 596.96 179.591 602.188 179.591C607.642 179.591 612.21 178.136 615.892 175.227C619.574 172.273 622.347 168.25 624.21 163.159C626.119 158.023 627.074 152.182 627.074 145.636C627.074 139.136 626.142 133.364 624.278 128.318C622.415 123.273 619.642 119.318 615.96 116.455C612.278 113.591 607.688 112.159 602.188 112.159C596.915 112.159 592.438 113.545 588.756 116.318C585.074 119.091 582.278 122.977 580.369 127.977C578.506 132.977 577.574 138.864 577.574 145.636ZM698.051 58.3636V198H673.369V58.3636H698.051ZM790.182 153.955V93.2727H814.864V198H790.932V179.386H789.841C787.477 185.25 783.591 190.045 778.182 193.773C772.818 197.5 766.205 199.364 758.341 199.364C751.477 199.364 745.409 197.841 740.136 194.795C734.909 191.705 730.818 187.227 727.864 181.364C724.909 175.455 723.432 168.318 723.432 159.955V93.2727H748.114V156.136C748.114 162.773 749.932 168.045 753.568 171.955C757.205 175.864 761.977 177.818 767.886 177.818C771.523 177.818 775.045 176.932 778.455 175.159C781.864 173.386 784.659 170.75 786.841 167.25C789.068 163.705 790.182 159.273 790.182 153.955Z" fill="currentColor"/>
<path d="M839.097 112.386V99.8068H845.318C846.023 99.8068 846.693 99.9659 847.33 100.284C847.977 100.591 848.5 101.051 848.898 101.665C849.307 102.278 849.511 103.034 849.511 103.932C849.511 104.83 849.301 105.597 848.881 106.233C848.46 106.858 847.915 107.335 847.244 107.665C846.585 107.994 845.892 108.159 845.165 108.159H840.818V105.892H844.415C844.858 105.892 845.267 105.727 845.642 105.398C846.017 105.068 846.205 104.58 846.205 103.932C846.205 103.25 846.017 102.773 845.642 102.5C845.267 102.227 844.875 102.091 844.466 102.091H842.199V112.386H839.097ZM846.989 106.54L849.955 112.386H846.545L843.733 106.54H846.989ZM843.989 119.886C842.102 119.886 840.335 119.534 838.688 118.83C837.04 118.125 835.591 117.148 834.341 115.898C833.091 114.648 832.114 113.199 831.409 111.551C830.705 109.903 830.352 108.136 830.352 106.25C830.352 104.364 830.705 102.597 831.409 100.949C832.114 99.3011 833.091 97.8523 834.341 96.6023C835.591 95.3523 837.04 94.375 838.688 93.6705C840.335 92.9659 842.102 92.6136 843.989 92.6136C845.875 92.6136 847.642 92.9659 849.29 93.6705C850.938 94.375 852.386 95.3523 853.636 96.6023C854.886 97.8523 855.864 99.3011 856.568 100.949C857.273 102.597 857.625 104.364 857.625 106.25C857.625 108.136 857.273 109.903 856.568 111.551C855.864 113.199 854.886 114.648 853.636 115.898C852.386 117.148 850.938 118.125 849.29 118.83C847.642 119.534 845.875 119.886 843.989 119.886ZM843.989 116.392C845.852 116.392 847.551 115.937 849.085 115.028C850.619 114.119 851.841 112.898 852.75 111.364C853.67 109.818 854.131 108.114 854.131 106.25C854.131 104.386 853.67 102.688 852.75 101.153C851.841 99.608 850.619 98.3807 849.085 97.4716C847.551 96.5625 845.852 96.108 843.989 96.108C842.114 96.108 840.409 96.5625 838.875 97.4716C837.341 98.3807 836.114 99.608 835.193 101.153C834.284 102.688 833.83 104.386 833.83 106.25C833.83 108.114 834.284 109.812 835.193 111.347C836.114 112.881 837.341 114.108 838.875 115.028C840.409 115.937 842.114 116.392 843.989 116.392Z" fill="currentColor"/>
</svg>