<svg width="96" height="72" viewBox="0 0 96 72" fill="none" xmlns="http://www.w3.org/2000/svg">
<path d="M0 72V26.1818C0 24.3409 0.578125 22.7898 1.73438 21.5284C2.89062 20.267 4.3125 19.6364 6 19.6364H90C91.625 19.6364 93.0312 20.267 94.2188 21.5284C95.4062 22.7898 96 24.3409 96 26.1818V72H0ZM60 13.0909V6.54545C60 4.77273 60.5781 3.23864 61.7344 1.94318C62.8906 0.647727 64.3125 0 66 0H78C79.625 0 81.0312 0.647727 82.2188 1.94318C83.4062 3.23864 84 4.77273 84 6.54545V13.0909H60ZM12 13.0909V6.54545C12 4.77273 12.5781 3.23864 13.7344 1.94318C14.8906 0.647727 16.3125 0 18 0H30C31.6875 0 33.1094 0.647727 34.2656 1.94318C35.4219 3.23864 36 4.77273 36 6.54545V13.0909H12Z" fill="#228B22"/>
</svg>
